<?xml version="1.0" encoding="UTF-8" standalone="no"?>
<svg
   width="308.7612359841165"
   height="304.915625"
   viewBox="0 0 106.00782394174519 104.68749999999999"
   xmlns="http://www.w3.org/2000/svg"
   version="1.1">
  <!-- Define gradients -->
  <defs>
    <linearGradient id="grad1" x1="0%" y1="0%" x2="100%" y2="0%">
      <stop offset="0%" style="stop-color:#00b3ff;stop-opacity:1" />
      <stop offset="100%" style="stop-color:#00ff80;stop-opacity:1" />
    </linearGradient>
  </defs>
  
  <!-- Stylized bird element -->
  <g fill="url(#grad1)" transform="translate(15, 15) scale(0.8)">
    <!-- Bird path -->
    <path d="M30 20c15 0 25-10 25-10s-15 5-25 5-25-5-25-5 10 10 25 10zM30 30c20 0 35-15 35-15s-20 10-35 10-35-10-35-10 15 15 35 15z" />
    <!-- Additional decorative lines to mimic bird's feather style -->
    <path d="M30 20c10 0 18-7 18-7s-10 4-18 4-18-4-18-4 8 7 18 7z" fill="#00b3ff" />
    <path d="M30 15c5 0 10-3 10-3s-5 2-10 2-10-2-10-2 5 3 10 3z" fill="#00ff80" />
  </g>
</svg>
